<svg xmlns="http://www.w3.org/2000/svg" viewBox="0 0 400 300" role="img" aria-label="Map of the PDO-SK-A1355 appellation area"><title>PDO-SK-A1355</title><rect width="400" height="300" fill="#e9eef0"/><path d="M408 -8L408 168L403.3 169.3L396.7 167.5L391.5 161.3L384.7 158.6L379.7 158.2L377.1 155.6L371.1 144.6L369.3 144.3L363.3 146.1L361.4 130.1L369.3 117.1L372.3 97.8L378.3 81L378.6 76.8L381.1 76L389.4 78.2L396.6 78.9L398.2 76.8L398 72.6L387.5 65.4L387.2 53.1L377.9 30.4L380.3 23.2L395.6 -8ZM408 308L346.9 308L354 291.2L353.4 283.4L360.1 272.9L363.2 255.8L370.1 245.6L368.7 235L370.7 231.5L375 227.2L384.2 210.1L388.1 208.7L392 205.4L396.6 203.6L401.5 204L404.3 202.9L408 199.2ZM395.6 -8L380.3 23.2L377.9 30.4L387.2 53.1L387.5 65.4L398 72.6L398.2 76.8L396.6 78.9L389.4 78.2L381.1 76L374.3 76.7L343.5 69.1L338.7 61L333.1 57.5L321.3 55.5L316.2 53.4L297.7 54.6L280.7 58.3L276.9 66.7L273.8 69.4L268.8 70.4L264.3 69.7L259.2 66.3L251.7 65.2L246.7 67L239.5 67L235.8 68.2L224.1 76.7L221.1 81.6L219.1 90.8L209.6 88.1L202.7 91.9L199.6 91.1L200.8 84.5L198.6 74.6L195.6 73.3L189 72.5L188.5 70.8L181.7 63.7L177.3 57.2L174.6 55.4L166.7 63.6L163.6 65.4L158.5 77.1L147.1 78.8L143.9 69.1L137.1 68.7L134.3 58.9L119.2 46.4L116.9 40.7L117.1 38.4L115.8 34.7L112.6 32.8L101.7 31.4L99.2 33.2L92.3 29L85.4 27L81.8 23.5L80.5 23.3L78 27.2L71.5 30.5L68.6 29.7L57.9 19.3L54.4 18.1L52.2 16L51.6 14.3L58.8 10L60 6.2L58.4 -0.4L57.2 -1.1L54.4 1.5L48.4 4.1L39.7 5.9L22.1 -4.5L11 -7.2L4.6 -7.7L4 -6.4L13.2 8L13.2 10.3L4.4 16.1L-5 25.8L-7.6 25.5L-8 -8ZM363.3 146.1L369.3 144.3L371.1 144.6L377.1 155.6L379.7 158.2L384.7 158.6L391.5 161.3L396.7 167.5L403.3 169.3L408 168L408 199.2L404.3 202.9L401.5 204L396.6 203.6L392 205.4L388.1 208.7L384.2 210.1L375 227.2L370.7 231.5L368.7 235L370.1 245.6L363.2 255.8L360.1 272.9L353.4 283.4L354 291.2L346.9 308L2.8 308L5.1 303.6L2.5 294.5L2.8 291.3L7.5 290.4L14.3 285.5L17.1 276.6L14.1 269.7L-0.1 266.2L-0.9 264.5L7 256.6L9.6 256.1L13.5 256.9L20.5 261.4L23.1 261.9L25.4 260.2L35.4 259.2L41.4 257.4L37.8 244.9L38.1 241.4L40.4 238.4L40.5 232.2L44 227.7L45.7 226.9L52.5 227L55.3 228L67 237.1L77.9 243.6L86.6 246.6L112 244.6L149.8 237.9L152.6 231L150.2 227.4L149.8 222.8L151.8 216.5L159.2 210.6L181.9 205.6L194.6 200.3L196 195L199.7 189.5L203.5 188L222.5 194.5L225.7 192.6L248.6 174.6L255.6 150.7L265.2 147L279.6 145.3L293.1 147.2L301.4 145.5L312.7 139.5L317.2 138.9L325.2 143.2L334.2 153.5L337.7 156.1L340.8 156.5L362.1 147.5L363.3 146.1ZM137.1 68.7L132 71L122.3 72.4L112 83.5L109.3 89.3L97.1 98.4L94.7 106.4L94.4 117.8L92.4 120.8L84 125.5L83 128.3L75.2 137.4L67.1 142.8L58 145.1L38.7 143.8L35.5 146L31.4 152.4L27.3 163L25.9 170.9L24.1 168.9L20.4 161L9.1 159.1L-2.4 154L-6.6 154L-8 155.1L-8 25.3L-5 25.8L4.4 16.1L13.2 10.3L13.2 8L4 -6.4L4.6 -7.7L11 -7.2L22.1 -4.5L39.7 5.9L48.4 4.1L54.4 1.5L57.2 -1.1L58.4 -0.4L60 6.2L58.8 10L51.6 14.3L54.4 18.1L57.9 19.3L62.5 23.1L65.9 27.7L71.5 30.5L78 27.2L80.5 23.3L81.8 23.5L85.4 27L92.3 29L99.2 33.2L101.7 31.4L112.6 32.8L115.8 34.7L117.1 38.4L116.9 40.7L119.2 46.4L134.3 58.9L137.1 68.7ZM-8 308L-8 155.1L-6.6 154L-2.4 154L9.1 159.1L20.4 161L24.1 168.9L25.9 170.9L25.7 175.6L21.4 186.8L22.1 192.2L30.8 210L38.1 220.6L39.6 224.8L44 227.7L40.5 232.2L40.4 238.4L38.1 241.4L37.8 244.9L41.4 257.4L35.4 259.2L25.4 260.2L23.1 261.9L20.5 261.4L13.5 256.9L9.6 256.1L7 256.6L-0.9 264.5L-0.1 266.2L14.1 269.7L17.1 276.6L14.3 285.5L7.5 290.4L2.8 291.3L2.5 294.5L5.1 303.6L2.8 308Z" fill="#e6e1d7" stroke="#c9c1b3" stroke-width="0.6" stroke-linejoin="round"/><path d="M378.6 76.8L378.3 81L372.3 97.8L369.3 117.1L361.4 130.1L363.3 146.1L362.1 147.5L340.8 156.5L337.7 156.1L332.2 151.5L325.2 143.2L317.2 138.9L312.7 139.5L301.4 145.5L293.1 147.2L279.6 145.3L265.2 147L255.6 150.7L248.6 174.6L225.7 192.6L222.5 194.5L203.5 188L199.7 189.5L196 195L194.6 200.3L181.9 205.6L159.2 210.6L151.8 216.5L149.8 222.8L150.2 227.4L152.6 231L149.8 237.9L112 244.6L86.6 246.6L77.9 243.6L67 237.1L55.3 228L52.5 227L45.7 226.9L44 227.7L39.6 224.8L38.1 220.6L30.8 210L22.1 192.2L21.4 186.8L25.7 175.6L27.3 163L31.4 152.4L35.5 146L38.7 143.8L58 145.1L67.1 142.8L75.2 137.4L79.4 132.9L85.6 124L92.4 120.8L94.4 117.8L94.7 106.4L97.1 98.4L109.3 89.3L112 83.5L122.3 72.4L132 71L137.1 68.7L143.9 69.1L147.1 78.8L158.5 77.1L163.6 65.4L166.7 63.6L174.6 55.4L177.3 57.2L181.7 63.7L188.5 70.8L189 72.5L195.6 73.3L198.6 74.6L200.8 84.5L199.6 91.1L202.7 91.9L209.6 88.1L219.1 90.8L221.1 81.6L224.1 76.7L235.8 68.2L239.5 67L246.7 67L251.7 65.2L259.2 66.3L264.3 69.7L268.8 70.4L273.8 69.4L276.9 66.7L280.7 58.3L297.7 54.6L316.2 53.4L321.3 55.5L333.1 57.5L338.7 61L343.5 69.1L374.3 76.7L378.6 76.8Z" fill="#f7f2e8" stroke="#a89f90" stroke-width="0.9" stroke-linejoin="round"/><path d="M152.3 218L153.5 216.8L153.2 212.5L154 211.5L156.7 211.3L157.3 210.1L158.9 210.7L161.1 209.6L163.6 209.8L165.5 207.2L168.6 208.9L170.1 207.1L171.7 207.6L173.4 206.6L180.5 207.7L181.3 205.9L184.2 203.8L189.6 202.8L190.6 203.6L193.9 201.3L195 202.8L196.4 200.1L195.9 197.2L197.1 195.6L195.4 189.5L197.4 187.2L195 185.4L196 183.8L195.1 183.7L194.3 181L192.2 179.2L192.7 181.9L190.3 180.1L190.3 182L188.9 182.8L188.9 183.8L190.4 184.7L193.3 185.2L191.9 187.6L189.6 186.2L188.7 186.7L189.1 188.3L188 189.3L188.1 190.9L189.9 189.9L190.7 190.7L191.6 189.8L190.7 194.1L188 193.4L187.9 190.9L186.3 189.8L184.4 186.1L181.3 184.9L180.7 186.2L178.9 186.3L181.5 189.8L179.7 190.2L177 187.8L174.8 190.8L175.4 195.4L173.4 198.3L170.3 200.7L169.1 200.6L166.8 198.8L167.9 195.4L166.3 194.5L168 190.8L166.1 190.5L165.1 192.5L164.1 191.8L165.1 191.2L164.5 190.5L163.7 190L163.2 191.6L162.7 189.9L161.3 191.9L159.9 191.9L160.5 188.6L163.1 189.2L164 185.4L165.1 186L165.4 183.3L166.7 182L169.1 175.5L168.2 173.4L165.9 174.1L163.7 173.3L162.7 171.6L161.4 172.3L159.6 175L161.2 177.7L160 178.9L162 181.3L160.9 182.8L161.4 184.1L157.6 182.5L156.1 184.3L156.5 184.8L155.5 185.4L153.9 184.4L154.1 185.7L151.8 187.1L151.9 190L153.4 190.9L157.4 189.8L157.6 191.3L155.6 192.2L156.1 193.4L155.3 194.5L153.1 194.8L152.8 193.5L149.9 192.5L152.1 196.1L150.1 198.2L151.3 201.3L153 202.1L152 203.3L152.9 205.8L151 207.2L150.7 206.3L148.6 206.4L149.1 209.8L148 211L148.3 218.4L149.7 219.3L150.4 218.2L152.3 218ZM180.9 204.9L177.9 203L178.9 200.3L181.4 201.8L180.8 203.4L181.7 204.4L180.9 204.9ZM215.6 185.8L214.6 184.4L217 182.1L217.8 183.3L218.5 183L217.1 180.9L219.2 178.8L216.8 173.9L212.1 172.8L211.6 169.1L207.8 169.6L206.2 167.3L204 167.1L203.8 166.3L202.6 167L202 166.2L202.4 167.7L204.8 169.7L204.3 170.3L203.1 169.8L202.7 172.3L201.4 171.1L201.1 172.2L200.2 172.1L199.3 173.5L200.2 175.4L201.2 176L203.2 175.2L203.4 174.5L202.5 174.2L203.2 172.4L204.9 174L208.2 172.9L209.6 174.5L212.4 174.1L213.4 175.8L212.2 179.3L211.3 179.2L211.4 176.2L209.3 176.4L208.6 178L208.9 179.9L210.9 179.3L210.4 181.1L211.9 181.8L210.9 184.5L212.7 184.6L213.4 186.3L216.2 186.9L216.5 188.2L217.3 187.3L217.9 189L220 190L221.6 189.3L221 191.2L222 191.1L223.3 192.9L222.7 195.2L225 194.2L226.4 190.1L227.9 190.7L230.4 188.9L231.8 189.7L233.5 187.9L232.7 187.4L234.3 185.7L230.6 184L231.5 181.3L230.4 180.5L231.2 179.8L233.4 181.4L234.9 179.2L236.8 178.5L237.5 180.7L240.3 178.8L239.9 176.3L236.5 178.1L234 174.8L236.2 171.2L240.8 169.1L239.3 167.7L241.8 162.8L241.1 161.2L240 161.1L238.4 162.9L239.2 164.6L237.5 167.6L235.9 165.8L233.2 166.9L231.8 166L235.1 161.6L237.2 162.2L239.5 160.7L238.2 158L234.5 156.8L233.1 157.9L230.3 162L231.8 164.1L229.6 165.2L230.4 167.6L228.7 167.3L225.5 162L224.7 162.2L225 165L226.5 166.8L225.4 168.2L224 166.8L218.3 169.1L217.3 168L217.8 166.1L215 167.4L215.1 170.5L216.4 172.4L220.1 174.2L223.5 171.3L221.5 176L225.2 177.9L221 179.2L221.5 182.1L218.8 183.2L219.3 186.1L215.6 185.8ZM225 179.4L225.8 178.5L228.1 178.4L228.1 175.9L223.6 175.4L227.8 172.8L228.1 175.6L229 175.6L229.8 177.7L229.1 179.9L229.7 180.8L228.2 182.3L227 182.1L225.2 180.9L225 179.4ZM222.9 187.4L226.2 188.3L226.1 189.7L221.1 188.1L222.9 187.4ZM228.8 186L229.7 186.6L227.8 189.2L228.8 186ZM198.6 181.5L197.6 181.6L197.5 182.9L201.1 186.4L200.7 186.8L201.7 186.9L203.8 185.1L204.8 182.4L206.2 181.9L204.3 179.8L202.2 180.2L202.4 182.5L201.5 183.4L198.6 181.5ZM250.6 171.8L251.3 169.1L250.2 167.9L250.9 166.9L250.3 166.3L248.3 167.6L248.2 166.4L247 166.5L246.8 164.7L249 163.9L250.3 166.3L252.1 165.4L250.9 162.3L252.8 161.3L255.2 157.4L254.1 156.2L251.9 156.8L250.5 158.4L249.3 157.4L246.8 158.4L246.7 157.3L244.4 156.9L244.1 160.1L242.8 161.1L244 162.4L243.8 165.3L246.7 169.5L249.3 169.1L247.2 173.9L248.7 175.1L250.6 171.8Z" fill="#c83a25" fill-opacity="0.85" stroke="#8f2515" stroke-width="0.6" stroke-linejoin="round"/></svg>
