<svg xmlns="http://www.w3.org/2000/svg" viewBox="0 0 400 300" role="img" aria-label="Map of the PDO-PT-A1545 appellation area"><title>PDO-PT-A1545</title><rect width="400" height="300" fill="#e9eef0"/><path d="M408 -8L408 308L226.6 308L228.2 306.2L233.5 303.9L229.1 303.2L225.2 306.5L222.4 299.3L208.6 283.3L210.3 279.2L207 281.9L204.9 282.3L196.8 279.9L186.9 279.2L187.2 257.4L191.2 250.6L204.7 238.8L211.7 238.3L215.9 231.6L209.7 230.6L203.1 214.1L208.3 201.5L219.8 193.8L223.3 186.5L222.1 183.5L217.2 180.9L214 169.2L214.2 162.4L210.6 157.7L208.4 150.4L211.8 150.2L225.2 153.3L228.7 152.4L232.1 148.6L237.6 137.8L233.7 130.4L233.8 129L234.9 127.1L244.4 122L243.8 116.5L247.4 105.9L248 99.4L248.2 94L246.9 86.7L249.2 84.3L253.9 82.9L258.4 78.2L264.1 74.7L271.2 72.4L280.2 65.9L279.8 62.1L277.7 59.4L274.7 57.5L269 55.9L270.5 45.3L268.9 41.3L265.5 40.9L260.9 38.3L259.4 39L253.2 37.3L249 34.6L246.9 35.5L245.7 38.5L237.6 39.9L233.4 38.8L227.1 34.5L219.1 33.5L218.3 32.6L210.9 34.5L208.6 34.1L206.8 29.1L211.9 23.7L210.1 17L208.1 16.3L194.8 17.6L186.3 21.5L183.3 21.5L182.5 20.2L184.1 12L193.6 5.2L189 3.4L189.8 1L193.8 -2.2L191.4 -6L191.9 -8Z" fill="#e6e1d7" stroke="#c9c1b3" stroke-width="0.6" stroke-linejoin="round"/><path d="M186.3 21.5L194.8 17.6L208.1 16.3L210.1 17L211.9 23.7L206.8 29.1L208.6 34.1L210.9 34.5L218.3 32.6L219.1 33.5L227.1 34.5L233.4 38.8L237.6 39.9L245.7 38.5L246.9 35.5L249 34.6L253.2 37.3L259.4 39L260.9 38.3L265.5 40.9L268.9 41.3L270.5 45.3L269 55.9L274.7 57.5L277.7 59.4L279.8 62.1L280.2 65.9L271.2 72.4L264.1 74.7L258.4 78.2L253.9 82.9L249.2 84.3L246.9 86.7L248.2 94L248 99.4L247.4 105.9L243.8 116.5L244.4 122L234.9 127.1L233.8 129L233.7 130.4L237.6 137.8L232.1 148.6L228.7 152.4L225.2 153.3L211.8 150.2L208.4 150.4L210.6 157.7L214.2 162.4L214 169.2L217.2 180.9L222.1 183.5L223.3 186.5L219.8 193.8L208.3 201.5L203.1 214.1L209.7 230.6L215.9 231.6L211.7 238.3L204.7 238.8L191.2 250.6L187.2 257.4L186.9 279.2L183.2 278.9L167.4 283.9L163.1 282.9L155.7 277.3L137.2 270.3L130.9 271.3L126.4 270.1L122.2 272.2L119.8 270.8L131.9 252.3L133.5 244L136.2 237L136.6 229.6L135.3 224.6L141 213.8L142 207.8L140.8 199.6L149.2 202.9L145 196.8L140.3 195.9L128.4 196.9L127.5 196.1L129 191.5L128.5 185L131.8 184.2L135.2 184.6L138.7 182.8L141.2 180.3L141.4 175L145 170.8L151.8 168.1L148.6 168L144.6 169.7L134.1 181.8L124.7 181.8L120.4 178.9L121.9 172.6L124.9 167.6L127.4 160L131.5 153.7L131.7 148.8L137.6 145.6L143.1 140.7L162.1 114.5L161 110.7L162.5 106.8L170.5 90L175.7 83.4L180.6 66.5L179.9 55.5L180.6 40.7L181.5 36L184.2 34.1L180.8 32.9L180 29.4L181.1 26.1L186.3 21.5Z" fill="#f7f2e8" stroke="#a89f90" stroke-width="0.9" stroke-linejoin="round"/><path d="M184.4 62.4L185.6 63.7L184.5 64.6L186 68.5L187.8 68.9L188.7 72L190.1 73.3L187.8 75.4L189 78.6L188.2 80L186 80.6L185.5 82.7L186.5 84.1L188.5 84L189.4 85.5L191.6 85.6L191.8 86.8L193.9 84L193.6 82.2L199.3 83.7L199.5 78.5L201.5 77.1L203.4 77.7L204 78.9L206.1 79L212.2 73L211.6 70.7L209.9 71.9L212.7 66L211.5 63.1L215.5 61.2L218 58.1L220 58.4L220.6 56.3L219 54.2L221 53L221.8 53.9L222.4 53.4L221 50.9L222.4 50.1L222.2 49L223.8 47.6L222.1 46.3L219 49.3L217.9 47.1L216.5 48.2L213.7 47.2L212.1 46L213.4 42.2L211.8 40.9L208.5 40.7L210 39.8L212.7 35.2L208.2 33.7L208.7 30.5L207.6 30.5L207.4 28.3L210.2 25.2L213.6 24.2L214 22.7L213.1 20.5L210.5 20.7L210.9 16.1L205 18.4L197.6 16.9L196 18L192.9 17.4L191.4 19.4L187.9 20.6L187 22.1L181.8 24.5L180.1 30.2L181.2 34.9L180.8 45.2L179.5 48.3L180.4 53L179.7 61.1L184.4 62.4Z" fill="#c83a25" fill-opacity="0.85" stroke="#8f2515" stroke-width="0.6" stroke-linejoin="round"/></svg>
