<svg xmlns="http://www.w3.org/2000/svg" viewBox="0 0 400 300" role="img" aria-label="Map of the PDO-DE-02082 appellation area"><title>PDO-DE-02082</title><rect width="400" height="300" fill="#e9eef0"/><path d="M-8 71.3L1.5 72.9L8.1 76.1L13.3 81.6L14.4 87.9L14.1 91.8L8.5 104.7L2.8 108.6L1 107.9L1.4 112.4L-0.6 113.6L-2.6 114L-5.7 112.8L-8 113.9L-7 118.4L-8 120.7L-8 128.4L2.4 129.6L1.3 135.8L-7 139.6L-8 141ZM179.3 275.3L181.7 277.3L178.3 287.6L178.3 291.5L186.9 293.4L187.7 295.9L193.8 298.9L199 294.2L200.6 294.9L201.5 298.4L200.2 305.4L201.3 308L196.3 308L195.3 307L192.6 308L96.4 308L97.8 304.9L104 300.2L105.4 293.5L110.6 291L117.8 282.8L119.1 280.4L116.7 278.3L120.5 275.2L122.5 275.2L124 277.3L125.5 277.6L129.2 276.7L131.1 273.5L134 272L141.4 273.3L147.8 271.9L153.9 272.4L156.4 271.5L156.6 270.5L153.9 270.5L152.8 269.2L153.6 267.7L156.8 266.2L160.5 268.9L162.9 268.8L164.1 270.5L171.2 270.1L179.3 275.3ZM277 -8L274.1 -3.4L266.7 -4.1L257.1 -0.8L248.3 -2.7L249.3 -8ZM408 242.4L399.8 244.2L397.2 246.3L396.5 248.6L397.5 251.5L396.5 253.9L373.9 257.1L370.8 256L362.7 250.4L358.7 250.3L357.1 249.3L350.9 237.6L350.6 235.7L352.7 227.2L355.7 221.1L356.8 220.3L363.7 220.8L369.8 218L373 213.8L376.7 211.1L377.7 204.2L382 200.9L386.7 194.8L394.4 193.7L395.5 197.2L399.6 196.5L401.4 192.3L405.4 188.8L408 191.9ZM348.4 304.3L343.6 303.5L341.7 305.4L342.2 308L305.3 308L307.7 304.6L311.5 302.7L322.1 301.9L326.5 299.1L329.7 298.4L334.4 299.2L334.5 294.9L337.2 292.5L341.8 292.3L344.7 299.7L348.4 304.3ZM407 -8L403.8 -2.2L408 -1.3L408 17.7L386.5 18.9L390.8 12.1L392 7.8L391.8 1.8L394.2 0.2L400.1 -0.5L402.3 -2.4L405.6 -8ZM408 191.9L405.4 188.8L401.4 192.3L399.6 196.5L395.5 197.2L394.4 193.7L391.9 193.5L390.9 190L385.6 185.6L384.3 181.4L379.3 180.2L378.4 180.9L371.7 177.3L368.5 179.9L362.4 175.5L361.4 174.1L364 172.6L364.4 171.2L363.4 168.6L357.2 171.1L350.9 167.4L344.6 166.3L347.7 172.7L341.2 178.2L340.3 178.1L332.6 169.5L329.7 167.7L332.7 164.7L333.9 162.1L330.6 159.5L324.6 161.5L323.2 159.6L318.1 157.5L309.6 155.6L307.7 153.3L307.1 150.6L301.1 149.1L301.2 153.6L297.4 154.8L300.2 146.3L301 140.7L298.1 133.5L294 131.6L294.1 128L290.6 121L292.1 118.4L293.3 112L292.2 111.1L291.4 106.3L288.5 102.6L289.5 96.6L287 92.6L278.3 84.9L278.4 83L282.9 76.7L283.6 73.3L279.3 54.9L286.2 57.7L285.3 51.3L278 50L277.6 48.4L277.8 47.3L281.5 47.9L299.6 39.1L317.6 32.4L324.4 22.5L330.8 20.4L338 15L354.2 9.5L359 8.9L368.4 13.2L369.5 14.9L361.7 11.9L367.7 22.3L371.4 24L374.3 24.4L382.9 21.9L386.5 18.9L408 17.7ZM101.4 159.7L96 159.1L93.8 156L96.4 152.4L98.2 147.7L97.9 145.3L93.8 143.5L91.1 140.3L87.4 141L85.3 140.1L83 137.6L81.8 133.2L79.7 135.2L77.6 135.2L75.8 132L73 134.3L70.2 132.2L67.5 133.6L67.8 135.8L67.1 136.1L59.3 132.4L55.2 133.3L50.2 131.3L47.4 128L49.7 126.5L54 126.6L57 127.6L62.3 132.2L65.2 131.9L59.7 127.1L63.6 126.9L59.1 119.5L62.6 113.3L65.4 111.2L72 102.9L77.5 85.7L79.7 81.2L82.2 82.6L86 81L92.6 76.6L96.6 70.8L104 67.5L108 66.6L123.9 66.2L126.9 70.3L131.6 72.1L131.1 82L127.3 94.1L121.2 94.5L119.8 98L120.9 100.4L125.6 101.3L126.3 102.2L126.9 103.6L126.4 107.6L125.4 109.7L119.8 113.9L119.5 115.4L121.3 117.4L119.9 119.8L111.4 122.4L107.4 120.3L102.5 122.8L107.3 135.4L104.2 143.2L105.2 145.9L100.8 149.5L99 149.7L102.9 154.4L101.4 159.7ZM63.9 134.8L62.5 137.5L56.3 140.5L49.5 137.1L46.1 138.3L44.7 133.5L50 133.2L56.3 135.3L59.3 134.1L61.4 135.5L63.9 134.8ZM113.9 63.3L110.2 64L113.9 63.3ZM105.3 64.7L101.2 65L99.6 64.1L105.3 64.7ZM87.8 68.9L83.4 70.8L86.1 68.7L87.8 68.9ZM92.5 66.5L89.7 66.1L98 65L92.5 66.5ZM82.5 76.9L80.3 79.2L78.7 77.8L79.5 75.9L82.8 72.9L82.5 76.9ZM58.9 122L61.4 125.4L58.6 125.9L55.9 123.3L54 123.7L53.4 122.5L55.4 121.4L58.9 122ZM122.4 61.2L120.4 61.2L123.8 59.7L122.4 61.2ZM103 181.9L102.7 184.9L104.6 189.2L107.2 192.1L110.8 193.6L110.6 196.8L108 200.5L107 205.6L103.3 203.8L99.4 205.5L94.5 201.9L96.8 198.3L93.6 192.4L94.2 188.5L99.9 180.1L102.5 180.7L103 181.9ZM180.5 291.7L178.3 291.5L179.3 284.2L181.3 289.9L180.5 291.7ZM192.6 308L195.3 307L196.3 308L201.3 308L200.2 305.4L201.5 298.4L207.2 299L210.6 301.5L214.6 301.4L217.9 295.7L220.5 294.3L233.3 293.7L242.6 290.1L243.4 290.8L241.8 293.5L242.4 295.2L248.3 303.2L267.3 307L278.8 308ZM408 308L355.9 308L348.4 304.3L344.7 299.7L341.8 292.3L337.2 292.5L340.7 288.4L345.4 286.7L346 282.6L344.6 281.9L343.9 279.2L344.8 277.4L344 273L348.1 271L349.1 267.8L348 265.3L342.7 263.5L346.4 260.4L351.2 262.5L357.8 260.9L356.5 256.5L357.5 251.9L358.7 250.3L362.7 250.4L370.8 256L373.9 257.1L383 256.3L396.5 253.9L397.5 251.5L396.5 248.6L397.2 246.3L399.8 244.2L408 242.4ZM134 272L131.1 273.5L129.2 276.7L127.3 277.4L124 277.3L122.5 275.2L118.4 276.3L116.7 278.3L119.1 280.4L117.8 282.8L110.6 291L105.4 293.5L104 300.2L97.8 304.9L96.4 308L-8 308L-8 177L-2.9 174L1.9 168.8L1.1 167.2L3.5 151.8L6.1 146.9L11.8 143.8L25.7 141.5L26.9 146.7L26.5 149.4L29.7 154.2L31.3 155.7L37.5 153.9L39.9 158.2L40.3 162.9L47.4 165.5L48.9 171.6L50.4 170.4L54.9 171.1L56.9 171.8L59.6 174.6L58.5 178.1L59.6 180L58.1 183.2L58.9 184.6L67.2 185.3L69.8 184L71.2 180.8L73.9 179L74.8 179.7L72.7 185.7L73.8 187.4L74.1 191.8L77.2 192.4L83.2 196.3L88 202.5L94.5 201.9L99.4 205.5L104.7 204L109.6 206.1L111.2 207.9L115.5 216.3L119.1 214.8L121.6 215.9L122.3 218.2L131.9 217.2L133.6 219.6L135.5 220.5L147.5 224L147.6 227L140.3 235.6L136.9 248L134.6 252.2L132 269.1L132.8 271.5L134 272ZM236.4 -8L234.8 -4.1L236.1 -2.3L238.3 -1.4L239 2.1L237.2 3.9L232.6 5.7L232.2 18.8L228.4 20.4L225.9 15.5L223.9 6L216.5 5.5L214.1 1.2L214.4 -3.6L212.9 -8ZM185.3 19L182.8 18L175.5 19.6L174.1 18.3L168.4 16.4L163.7 16.1L161.9 7.9L163.8 7.2L162.9 -2L154.2 -8L185.6 -8L182.5 -4.4L184 3.6L183.4 5.7L180.6 8.8L179.6 11.5L183.5 12.1L185.2 14L185.3 19ZM203.7 -8L207 1.5L206.4 8.2L203.2 11L199.5 11.2L190.4 7.2L187.8 0.4L187.8 -5.2L195.1 -8L197.8 -8L200.7 -6.7L202.2 -8ZM218.2 16.5L221.8 18.6L225.9 19.3L226.6 23.7L220.3 25.7L211.6 20.7L212 14.9L216.1 14.4L218.2 16.5ZM205.5 21.6L204.6 21.8L203.2 18.1L209.8 7.3L205.5 21.6ZM242.1 13.2L238.3 13.5L234.9 16L233.5 15.3L236.5 10L240.5 11.5L242.1 13.2ZM200.4 18.2L197.5 17.9L194.7 14.2L200.8 17.8L200.4 18.2ZM191.9 16.9L189.7 17.4L186.7 16.2L186.2 10.5L190.6 13.4L191.9 16.9ZM293.2 8.5L292.5 9.2L289.1 8.4L284.9 6.3L286.1 -0.6L293.8 4.2L293.2 8.5ZM391.9 193.5L386.7 194.8L382 200.9L377.7 204.2L376.7 211.1L373 213.8L369.8 218L363.7 220.8L356.8 220.3L355.7 221.1L352.2 230L350.3 226.5L342.1 224L340.6 224L338.2 226.3L331 226.4L325.4 223L322.5 223.4L313.2 220.1L309.8 221.3L307.5 219.6L305.8 219.6L304.7 227.8L302.4 227.8L301.6 228.8L300 231.6L299.8 234.2L295 233.5L292.3 235.4L288.1 235.6L284.8 234.9L283.3 231.9L279.1 229.5L272.6 223L270.1 223.3L266.4 218.5L262.9 216.5L257.5 210.7L255.1 210.8L252 207.9L245 196.7L247.6 191.2L240.5 184.3L237.6 177.2L239.5 177.6L241.9 181.3L245.7 175.3L247.8 173.7L252.6 172.2L256.6 172.9L258.1 169.9L261.8 169L263 166.6L265.9 164.9L267.4 165.6L269.9 161.8L277.4 159.5L287.5 154L284.8 150.6L285.4 149.6L291.2 150.5L293.1 153.1L293.1 155.2L295.6 156.5L297.4 154.8L301.2 153.6L301.1 149.1L307.1 150.6L307.7 153.3L309.6 155.6L318.1 157.5L323.2 159.6L324.6 161.5L330.6 159.5L332.4 160.5L333.9 162.1L333.2 164.1L329.7 167.7L332.6 169.5L340.3 178.1L341.2 178.2L347.7 172.7L344.6 166.3L350.9 167.4L357.2 171.1L363.4 168.6L364.4 171.2L364 172.6L361.4 174.1L362.4 175.5L368.5 179.9L371.7 177.3L378.4 180.9L379.3 180.2L384.3 181.4L385.6 185.6L390.9 190L391.9 193.5ZM342.2 308L341.7 305.4L343.6 303.5L349.7 304.7L355.9 308ZM63.9 134.8L67.1 136.1L67.8 135.8L67.5 133.6L70.2 132.2L73 134.3L75.8 132L77.6 135.2L79.7 135.2L81.8 133.2L83 137.6L85.3 140.1L87.4 141L91.1 140.3L93.8 143.5L98.5 146.3L96.4 152.4L93.8 156L96 159.1L101.4 159.7L106.6 165.4L105.1 167.9L108.6 170.6L108.9 175.4L104.5 178.1L103 181.9L102.5 180.7L99.9 180.1L94.2 188.5L93.6 192.4L96.8 198.3L94.5 201.9L88 202.5L83.2 196.3L77.2 192.4L74.1 191.8L73.8 187.4L72.7 185.7L74.8 179.7L73.9 179L71.2 180.8L69.8 184L67.2 185.3L58.9 184.6L58.1 183.2L59.6 180L58.5 178.1L59.6 174.6L56.9 171.8L54.9 171.1L50.4 170.4L48.9 171.6L47.4 165.5L40.3 162.9L39.9 158.2L37.5 153.9L31.3 155.7L26.5 149.4L26.9 146.7L25.7 141.5L41.9 134.1L44.7 133.5L46.1 138.3L49.5 137.1L56.3 140.5L62.5 137.5L63.9 134.8ZM179.3 284.2L181.7 277.3L179.3 275.3L182.3 275.3L184.6 273.5L189.9 276L192 278L192.2 279.9L195.4 281L195 283.9L198.1 282.7L199.4 280.9L201.1 274.3L211.4 275.3L214 279.6L215.5 279.8L221.5 278.5L223.8 276.3L231.4 272.8L242.5 271.2L242.9 267.7L249.5 270.4L254.3 269.1L256.4 270.1L257.4 273.4L262.3 275.5L263 269.2L262.5 267.7L259.2 267.1L260.5 264L260.3 261.1L255.5 254.8L256.7 251.7L269.5 244.2L271.8 236.3L276.3 238.2L277.4 237.4L278.7 235.8L279.1 229.5L283.3 231.9L284.8 234.9L292.3 235.4L295 233.5L299.8 234.2L300 231.6L301.6 228.8L302.4 227.8L304.7 227.8L305.8 219.6L307.5 219.6L309.8 221.3L313.2 220.1L322.5 223.4L325.4 223L331 226.4L338.2 226.3L340.6 224L342.1 224L350.3 226.5L352.2 230L350.9 237.6L357.1 249.3L358.7 250.3L357.5 251.9L356.5 256.5L357.8 260.9L351.2 262.5L346.4 260.4L342.7 263.5L348 265.3L349.1 267.8L348.1 271L344 273L344.8 277.4L343.9 279.2L344.6 281.9L346 282.6L345.5 286.2L340.7 288.4L335.9 293.2L334.5 294.9L334.4 299.2L329.7 298.4L326.5 299.1L322.1 301.9L311.5 302.7L307.7 304.6L305.3 308L278.8 308L250.5 304.2L248.3 303.2L242.4 295.2L241.8 293.5L243.4 290.8L242.6 290.1L233.3 293.7L220.5 294.3L217.9 295.7L214.6 301.4L210.6 301.5L207.2 299L202.2 298.7L200.6 294.9L199 294.2L193.8 298.9L187.7 295.9L186.9 293.4L180.5 291.7L181.3 289.9L179.3 284.2Z" fill="#e6e1d7" stroke="#c9c1b3" stroke-width="0.6" stroke-linejoin="round"/><path d="M179.3 275.3L171.2 270.1L164.1 270.5L162.9 268.8L160.5 268.9L156.8 266.2L153.6 267.7L152.8 269.2L153.9 270.5L156.3 270.3L156.4 271.5L153 272.6L147.8 271.9L141.4 273.3L135.9 272.9L132.8 271.5L132 269.1L134.6 252.2L136.9 248L140.3 235.6L147.6 227L147.5 224L135.5 220.5L133.6 219.6L131.9 217.2L122.3 218.2L121.6 215.9L119.1 214.8L115.5 216.3L111.2 207.9L109.6 206.1L107 205.6L108 200.5L110.6 196.8L110.8 193.6L105.7 190.8L103.2 187.1L102.8 182.8L104.5 178.1L108.9 175.4L108.6 170.6L105.1 167.9L106.6 165.4L101.4 159.7L102.9 154.4L99 149.7L100.8 149.5L105.2 145.9L104.2 143.2L107.3 135.4L102.5 122.8L107.4 120.3L111.4 122.4L119.9 119.8L121.3 117.4L119.5 115.4L119.8 113.9L125.4 109.7L126.4 107.6L126.9 103.6L126.3 102.2L125.6 101.3L120.9 100.4L119.8 98L121.2 94.5L126.8 94.7L130.8 83.2L131.6 72.1L128.7 68.7L130.1 62.4L132.3 59.1L134 58.2L149.1 58.3L152.3 63.6L151 66.2L152.9 67.5L153.8 67.1L155.8 61.5L159.1 64.8L159 69L160 63.3L160 55.4L161.9 52.2L167.7 53.6L174.1 53L176.5 54.5L182 62L186.1 63.7L182.9 62.1L176.3 52.9L171.3 51.4L168.3 49.1L168.1 38.7L165.6 36.8L162.8 37.4L162.4 35.3L162.9 33.8L169.2 31.5L169.3 29L163.9 20L163.7 16.1L168.4 16.4L174.1 18.3L175.5 19.6L182.8 18L188.4 20.6L191.1 24.4L191.2 27.6L187.9 31.5L193.5 30.9L195 33.7L198 32.6L205.6 36.9L211.4 34.6L212.5 38L211.4 41.5L207.4 45.3L208.3 47.6L209.6 48.1L213.5 47.5L219.6 49.7L227.7 42.5L234.1 41.5L243.3 30.7L252.7 32.3L255.3 36.7L261.7 41.4L267.4 40.7L269.6 45.3L270.9 51.1L274.3 53.9L279.3 54.9L283.6 73.3L282.9 76.7L278.4 83L278.3 84.9L287 92.6L289.5 96.6L288.5 102.6L291.4 106.3L292.2 111.1L293.3 112L292.1 118.4L290.6 121L294.1 128L294 131.6L298.1 133.5L301 140.7L299.4 149.4L296.5 156.3L293.1 155.2L293.1 153.1L291.2 150.5L286.2 149.2L284.8 150.6L287.5 154L277.4 159.5L269.9 161.8L267.4 165.6L265.9 164.9L263 166.6L261.8 169L258.1 169.9L256.6 172.9L252.6 172.2L247.8 173.7L245.7 175.3L241.9 181.3L239.5 177.6L237.6 177.2L240.5 184.3L247.6 191.2L245 196.7L252 207.9L255.1 210.8L257.5 210.7L262.9 216.5L267.6 219.7L269.2 222.5L272.6 223L279.1 229.5L278.7 235.8L277.4 237.4L276.3 238.2L271.8 236.3L269.5 244.2L258.6 250.2L255.5 253.7L260.3 261.1L260.5 264L259.2 267.1L262.5 267.7L263 269.2L262.3 275.5L257.4 273.4L256.4 270.1L254.3 269.1L249.5 270.4L242.9 267.7L242.5 271.2L231.4 272.8L223.8 276.3L221.5 278.5L215.5 279.8L214 279.6L211.4 275.3L201.1 274.3L199.4 280.9L198.1 282.7L195 283.9L195.4 281L192.2 279.9L192 278L189.9 276L184.6 273.5L182.3 275.3L179.3 275.3ZM266.6 32.7L266.8 36.2L264.4 34.3L262.1 34.5L260.8 37.6L259.8 37.8L256.1 35.2L255.3 32.7L255.5 27.5L256.6 24.1L258.5 22L260.2 21.8L261.8 24.7L265.3 26.5L265.6 27.3L263.9 29.9L264.4 31.3L266.6 32.7ZM277.8 47.3L278 50L272.1 50.1L271.7 46L269.7 43.9L269.6 41.5L277.8 47.3ZM216.9 33.1L213.8 33.3L211.3 31.5L211.9 29.8L212.8 29.1L215.8 30.2L216.9 33.1ZM156.3 20L155.8 20.7L156.1 15.7L158.4 10.5L159.4 10.6L157.8 16.1L162.9 16.5L162.3 17.4L157.1 17.9L156.3 20ZM161.9 22.7L161.1 23.6L158.1 22.6L160.3 21L161.6 21.5L161.9 22.7Z" fill="#f7f2e8" stroke="#a89f90" stroke-width="0.9" stroke-linejoin="round"/><path d="M134.8 176.7L134.8 175.7L134.2 176.3L134.8 176.7Z" fill="#c83a25" fill-opacity="0.85" stroke="#8f2515" stroke-width="0.6" stroke-linejoin="round"/><circle cx="134.7" cy="176.2" r="11" fill="none" stroke="#c83a25" stroke-width="1.5"/></svg>
