<svg xmlns="http://www.w3.org/2000/svg" viewBox="0 0 400 300" role="img" aria-label="Map of the PDO-PT-A1444 appellation area"><title>PDO-PT-A1444</title><rect width="400" height="300" fill="#e9eef0"/><path d="" fill="#e6e1d7" stroke="#c9c1b3" stroke-width="0.6" stroke-linejoin="round"/><path d="M215.9 184.8L210.7 185.1L172.2 154.7L164.9 138.2L168.8 117.2L178.8 114.9L198.9 121.4L224.1 139.6L235.1 162.1L227.2 178.9L215.9 184.8ZM62.7 129.6L51.5 127.5L7.9 76.5L-6.6 56.4L-8 52.3L-8 32.9L36 87.1L62.7 129.6Z" fill="#f7f2e8" stroke="#a89f90" stroke-width="0.9" stroke-linejoin="round"/><path d="M199.6 121.5L198.5 122L196.7 120.2L194.6 126.1L193.3 126.6L191.5 130.4L189.5 131.1L187 138.4L187.9 139.3L190.5 137.9L192.5 141.3L197.6 145.6L200.4 135L199.9 131.5L201.1 126.9L202.7 125.8L199.6 121.5Z" fill="#c83a25" fill-opacity="0.85" stroke="#8f2515" stroke-width="0.6" stroke-linejoin="round"/></svg>
